# xmcd CD database file
#
# Track frame offsets:
#	150
#	19246
#	39581
#	49587
#	73245
#	88233
#	101334
#	124529
#	139054
#	155920
#	178887
#	196242
#	221701
#
# Disc length: 3184 seconds
#
# Revision: 0
# Processed by: cddbd v1.5.1PL0 Copyright (c) Steve Scherf et al.
# Submitted via: CDex 1.51
#
DISCID=c00c6e0d
DTITLE=Vini K. and Jorge Degas - Soul Rhymes
DYEAR=1900
DGENRE=Jazz
TTITLE0=Long To See The Sun
TTITLE1=Soul Rhymes
TTITLE2=Uma Zero
TTITLE3=African Dreams
TTITLE4=Far Away
TTITLE5=Cai Dentro
TTITLE6=Spring Can Really Hang You Up The Most
TTITLE7=Coming Home
TTITLE8=Os Doidos
TTITLE9=Sabia
TTITLE10=Nosso Samba
TTITLE11=Triste
TTITLE12=She's Almost Normal
EXTD=
EXTT0=
EXTT1=
EXTT2=
EXTT3=
EXTT4=
EXTT5=
EXTT6=
EXTT7=
EXTT8=
EXTT9=
EXTT10=
EXTT11=
EXTT12=
PLAYORDER=
